# xmcd
#
# Track frame offsets: 
#        150
#        16140
#        33432
#        61197
#        77151
#        94428
#        118015
#        135712
#        149779
#        167806
#        180609
#        199081
#        210868
#        233886
#        253666
#        273346
#        294901
#        314736
#        329124
#        343364
#
# Disc length: 4803 seconds
#
# Revision: 0
# Processed by: cddbd v1.5.1PL0 Copyright (c) Steve Scherf et al.
# Submitted via: ExactAudioCopy v0.95a3
#
DISCID=3912c114
DTITLE=GEORGE THOROGOOD - The Baddest of...CD-1  
DYEAR=2005
DGENRE=Rockin' Blues
TTITLE0=Rockin' My Life Away
TTITLE1=Sweet Little Lady
TTITLE2=Killer's Blues
TTITLE3=Bottom of the Sea
TTITLE4=You Don't Love Me, You Don't Care
TTITLE5=Howlin' for My Baby
TTITLE6=99 Days in Jail
TTITLE7=House of Blue Light
TTITLE8=My Dog Can't Bark
TTITLE9=Don't Let the Bossman Get You Down
TTITLE10=As Long As I Have You.....
TTITLE11=That's It, I Quit
TTITLE12=Want ad Blues
TTITLE13=Goodbye Baby
TTITLE14=Who Do You Love
TTITLE15=Move It
TTITLE16=Six Days On the Road
TTITLE17=Restless
TTITLE18=That Same Thing
TTITLE19=You Can't Catch Me
EXTD=
EXTT0=
EXTT1=
EXTT2=
EXTT3=
EXTT4=
EXTT5=
EXTT6=
EXTT7=
EXTT8=
EXTT9=
EXTT10=
EXTT11=
EXTT12=
EXTT13=
EXTT14=
EXTT15=
EXTT16=
EXTT17=
EXTT18=
EXTT19=
PLAYORDER=
